<?xml version="1.0" encoding="UTF-8" standalone="no"?>
<svg
   xmlns:dc="http://purl.org/dc/elements/1.1/"
   xmlns:cc="http://creativecommons.org/ns#"
   xmlns:rdf="http://www.w3.org/1999/02/22-rdf-syntax-ns#"
   xmlns:svg="http://www.w3.org/2000/svg"
   xmlns="http://www.w3.org/2000/svg"
   xmlns:sodipodi="http://sodipodi.sourceforge.net/DTD/sodipodi-0.dtd"
   xmlns:inkscape="http://www.inkscape.org/namespaces/inkscape"
   version="1.1"
   x="0px"
   y="0px"
   viewBox="0 0 512 640"
   style="enable-background:new 0 0 512 512;"
   xml:space="preserve"
   id="svg44"
   sodipodi:docname="twine.svg"
   inkscape:version="0.92.2 (5c3e80d, 2017-08-06)"><metadata
     id="metadata50"><rdf:RDF><cc:Work
         rdf:about=""><dc:format>image/svg+xml</dc:format><dc:type
           rdf:resource="http://purl.org/dc/dcmitype/StillImage" /><dc:title></dc:title></cc:Work></rdf:RDF></metadata><defs
     id="defs48" /><sodipodi:namedview
     pagecolor="#ffffff"
     bordercolor="#666666"
     borderopacity="1"
     objecttolerance="10"
     gridtolerance="10"
     guidetolerance="10"
     inkscape:pageopacity="0"
     inkscape:pageshadow="2"
     inkscape:window-width="1366"
     inkscape:window-height="705"
     id="namedview46"
     showgrid="false"
     inkscape:zoom="1.3938842"
     inkscape:cx="3.0102507"
     inkscape:cy="644.30858"
     inkscape:window-x="-8"
     inkscape:window-y="-8"
     inkscape:window-maximized="1"
     inkscape:current-layer="svg44"
     inkscape:snap-page="false" /><g
     id="g34"
     transform="translate(-125.26564,-330.63509)"><g
       id="g4" /><g
       id="g8" /><g
       id="g12" /><g
       id="g16" /><g
       id="g20"><path
         d="m 131.005,491 c -7.90265,-0.64183 -4.98979,-10.71809 1.39729,-11.32901 10.99496,-6.2532 22.45102,-14.5629 26.27286,-27.22295 2.23916,-5.6559 -0.53342,-11.38341 -4.70039,-15.25694 -6.49351,-6.10844 -11.06009,-14.01168 -13.3008,-22.63351 -5.89396,-22.1884 -0.0249,-45.54521 8.63616,-66.16372 2.6812,-5.54551 4.768,-11.65448 8.71779,-16.41657 6.60737,-4.37613 11.1016,6.416 4.54137,9.54476 -11.88548,13.833 -20.47647,31.95072 -18.68588,50.53631 1.97785,13.01851 7.63748,25.10284 14.14367,36.41872 6.40477,12.56843 5.59896,28.28385 -2.11612,40.1132 -5.85161,9.18707 -14.0309,17.11834 -23.64632,22.24796 z"
         id="path18"
         inkscape:connector-curvature="0"
         sodipodi:nodetypes="ccccccccccccc" /></g><g
       id="g24" /><g
       id="g28" /><g
       id="g32" /></g></svg>